<svg xmlns="http://www.w3.org/2000/svg" viewBox="0 0 1200 600" fill="none">
  <path d="M200,150 L250,140 L280,160 L320,155 L350,170 L380,165 M400,180 L450,175 L480,190 L520,185 M150,200 L180,210 L220,205 L260,220 M300,250 L340,245 L380,260 L420,255 M500,280 L540,275 L580,290 L620,285 M700,200 L740,195 L780,210 L820,205 M850,220 L890,215 L930,230 L970,225 M100,350 L140,345 L180,360 L220,355 M250,380 L290,375 L330,390 L370,385 M600,350 L640,345 L680,360 L720,355 M800,380 L840,375 L880,390 L920,385" stroke="#0A1F44" stroke-width="0.5" opacity="0.1"/>
  <circle cx="300" cy="200" r="2" fill="#0A1F44" opacity="0.15"/>
  <circle cx="500" cy="250" r="2" fill="#0A1F44" opacity="0.15"/>
  <circle cx="700" cy="220" r="2" fill="#0A1F44" opacity="0.15"/>
  <circle cx="400" cy="350" r="2" fill="#0A1F44" opacity="0.15"/>
  <circle cx="800" cy="300" r="2" fill="#0A1F44" opacity="0.15"/>
</svg>
